<svg width="3005" height="239" viewBox="0 0 3005 239" fill="none" xmlns="http://www.w3.org/2000/svg">
<path d="M1025.9 20.5034H1024.1C1019.7 11.6034 1007.5 5.20343 993.1 5.20343C975 5.20343 960.3 15.4034 960.3 28.0034C960.3 30.3034 960.8 32.6034 961.7 34.7034C953.7 37.0034 948 41.7034 948 47.2034H1073C1073.1 33.7034 1048.1 20.5034 1025.9 20.5034Z" fill="#FCD5E4"/>
<path d="M2129.5 183.803H2127.7C2123.3 174.903 2111.1 168.503 2096.7 168.503C2078.6 168.503 2063.9 178.703 2063.9 191.303C2063.9 193.603 2064.4 195.903 2065.3 198.003C2057.3 200.303 2051.6 205.003 2051.6 210.503H2176.6C2176.8 197.003 2151.8 183.803 2129.5 183.803Z" fill="#FCD5E4"/>
<path d="M1732.3 33.0034H1730.5C1726.1 24.1034 1713.9 17.7034 1699.5 17.7034C1681.4 17.7034 1666.7 27.9034 1666.7 40.5034C1666.7 42.8034 1667.2 45.1034 1668.1 47.2034C1660.1 49.5034 1654.4 54.2034 1654.4 59.7034H1779.4C1779.6 46.2034 1754.6 33.0034 1732.3 33.0034Z" fill="#FCD5E4"/>
<path d="M621.5 28.6034C609.6 26.4034 596.7 33.5034 599.2 40.6034C599.2 40.6034 576.3 28.4034 563.2 45.0034C559.2 50.1034 561.8 58.1034 561.8 58.1034H651C651 58.1034 643.8 32.6034 621.5 28.6034Z" fill="#FCD5E4"/>
<path d="M722.5 109.403C706.2 109.403 693 117.403 693 127.403H752C752 117.503 738.8 109.403 722.5 109.403Z" fill="#FCD5E4"/>
<path d="M472.5 146.803C456.2 146.803 443 154.803 443 164.803H502C501.9 154.803 488.8 146.803 472.5 146.803Z" fill="#FCD5E4"/>
<path d="M1855.5 76.9034C1839.2 76.9034 1826 84.9034 1826 94.9034H1885C1884.9 85.0034 1871.8 76.9034 1855.5 76.9034Z" fill="#FCD5E4"/>
<path d="M1319.7 62.1034C1303.4 62.1034 1290.2 70.1034 1290.2 80.1034H1349.2C1349.2 70.2034 1336 62.1034 1319.7 62.1034Z" fill="#FCD5E4"/>
<path d="M2915.2 220.003C2898.9 220.003 2885.7 228.003 2885.7 238.003H2944.7C2944.7 228.103 2931.5 220.003 2915.2 220.003Z" fill="#FCD5E4"/>
<path d="M2409.4 137.703C2393.1 137.703 2379.9 145.703 2379.9 155.703H2438.9C2438.8 145.803 2425.7 137.703 2409.4 137.703Z" fill="#FCD5E4"/>
<path d="M29.5 40.1034C13.3 40.1034 0 48.1034 0 58.1034H59C59 48.2034 45.8 40.1034 29.5 40.1034Z" fill="#FCD5E4"/>
<path d="M1584.4 188.703C1568.2 188.703 1554.9 196.703 1554.9 206.703H1613.9C1613.9 196.703 1600.7 188.703 1584.4 188.703Z" fill="#FCD5E4"/>
<path d="M214.8 39.1034H323.3C322 33.8034 318.9 29.0034 314.5 25.7034C311.8 23.8034 308.7 22.4034 305.4 21.7034C302.1 21.0034 298.8 21.0034 295.5 21.7034C294.2 15.6034 290.9 10.1034 286 6.20341C281.2 2.30341 275.1 0.103414 268.9 0.0034138C262.7 -0.0965862 256.6 2.00341 251.7 5.90341C246.8 9.80341 243.4 15.2034 242 21.3034C232.7 11.5034 219 12.5034 213.8 19.1034C210.2 24.1034 210.5 32.3034 214.8 39.1034Z" fill="#FCD5E4"/>
<path d="M2693.1 39.1034H2801.6C2800.3 33.8034 2797.2 29.0034 2792.8 25.7034C2790.1 23.8034 2787 22.4034 2783.7 21.7034C2780.4 21.0034 2777.1 21.0034 2773.8 21.7034C2772.5 15.6034 2769.2 10.1034 2764.3 6.20341C2759.5 2.30341 2753.4 0.103414 2747.2 0.0034138C2741 -0.0965862 2734.9 2.00341 2730 5.90341C2725.1 9.80341 2721.7 15.2034 2720.3 21.3034C2711 11.5034 2697.3 12.5034 2692.1 19.1034C2688.5 24.1034 2688.8 32.3034 2693.1 39.1034Z" fill="#FCD5E4"/>
<path d="M268.8 126.203C256.9 124.003 244 131.103 246.5 138.203C246.5 138.203 223.6 126.003 210.5 142.603C206.5 147.703 209.1 155.703 209.1 155.703H298.3C298.3 155.703 291.1 130.203 268.8 126.203Z" fill="#FCD5E4"/>
<path d="M2692.4 177.103C2680.5 174.903 2667.6 182.003 2670.1 189.103C2670.1 189.103 2647.2 176.903 2634.1 193.503C2630.1 198.603 2632.7 206.603 2632.7 206.603H2721.9C2721.8 206.703 2714.6 181.203 2692.4 177.103Z" fill="#FCD5E4"/>
<path d="M2975.51 103.409C2963.61 101.202 2950.72 108.324 2953.22 115.446C2953.22 115.446 2930.33 103.208 2917.23 119.859C2913.23 124.975 2915.83 133 2915.83 133H3005C3005 133.1 2997.8 107.521 2975.51 103.409Z" fill="#FCD5E4"/>
<path d="M1170.1 194.203H1278.6C1277.3 188.903 1274.2 184.103 1269.8 180.803C1267.1 178.903 1264 177.503 1260.7 176.803C1257.4 176.103 1254.1 176.103 1250.8 176.803C1249.5 170.703 1246.2 165.203 1241.3 161.303C1236.5 157.403 1230.4 155.203 1224.2 155.103C1218 155.003 1211.9 157.103 1207 161.003C1202.1 164.903 1198.7 170.303 1197.3 176.403C1188 166.603 1174.3 167.603 1169.1 174.203C1165.4 179.103 1165.7 187.303 1170.1 194.203Z" fill="#FCD5E4"/>
<path d="M2253.6 59.3034H2362.1C2360.8 54.0034 2357.7 49.2034 2353.3 45.9034C2350.6 44.0034 2347.5 42.6034 2344.2 41.9034C2340.9 41.2034 2337.6 41.2034 2334.3 41.9034C2333 35.8034 2329.7 30.3034 2324.8 26.4034C2320 22.5034 2313.9 20.3034 2307.7 20.2034C2301.5 20.1034 2295.4 22.2034 2290.5 26.1034C2285.6 30.0034 2282.2 35.4034 2280.8 41.5034C2271.5 31.7034 2257.8 32.7034 2252.6 39.3034C2249 44.2034 2249.3 52.4034 2253.6 59.3034Z" fill="#FCD5E4"/>
</svg>
